SplineFontDB: 3.0
FontName: Zuish-Slim
FullName: Zuish Slim
FamilyName: Zuish
Weight: Regular
Copyright: Font based on Polytron's Fez.
Version: 1.100
ItalicAngle: 0
UnderlinePosition: -12
UnderlineWidth: 12
Ascent: 205
Descent: 51
sfntRevision: 0x00010042
LayerCount: 2
Layer: 0 1 "Back"  1
Layer: 1 1 "Fore"  0
XUID: [1021 62 1564396205 6521838]
FSType: 4
OS2Version: 3
OS2_WeightWidthSlopeOnly: 0
OS2_UseTypoMetrics: 1
CreationTime: 1353457934
ModificationTime: 1379194497
PfmFamily: 17
TTFWeight: 400
TTFWidth: 5
LineGap: 22
VLineGap: 0
Panose: 2 0 5 6 0 0 0 2 0 4
OS2TypoAscent: 230
OS2TypoAOffset: 0
OS2TypoDescent: -64
OS2TypoDOffset: 0
OS2TypoLinegap: 22
OS2WinAscent: 199
OS2WinAOffset: 0
OS2WinDescent: 48
OS2WinDOffset: 0
HheadAscent: 230
HheadAOffset: 0
HheadDescent: -64
HheadDOffset: 0
OS2SubXSize: 179
OS2SubYSize: 166
OS2SubXOff: 0
OS2SubYOff: 36
OS2SupXSize: 179
OS2SupYSize: 166
OS2SupXOff: 0
OS2SupYOff: 122
OS2StrikeYSize: 13
OS2StrikeYPos: 64
OS2Vendor: 'PYRS'
OS2CodePages: 00000001.00000000
OS2UnicodeRanges: 00000001.00000000.00000000.00000000
Lookup: 4 0 0 "0"  {"0-1"  } []
MarkAttachClasses: 1
DEI: 91125
ShortTable: maxp 16
  1
  0
  81
  24
  4
  0
  0
  1
  0
  0
  0
  0
  0
  0
  0
  0
EndShort
LangName: 1033 "" "" "" "" "" "1.100" "" "" "Font based on Polytron's Fez" "" "2012 CalTrask" 
Encoding: UnicodeBmp
UnicodeInterp: none
NameList: Adobe Glyph List
DisplaySize: -96
AntiAlias: 0
FitToEm: 1
WinInfo: 72 9 6
BeginPrivate: 0
EndPrivate
BeginChars: 65539 57

StartChar: a
Encoding: 97 97 0
Width: 210
Flags: W
LayerCount: 2
Fore
SplineSet
6 199 m 1,0,-1
 204 199 l 1,1,-1
 204 0 l 1,2,-1
 6 0 l 1,3,-1
 6 199 l 1,0,-1
30 173 m 1,4,-1
 30 145 l 1,5,-1
 84 145 l 1,6,-1
 84 118 l 1,7,-1
 126 118 l 1,8,-1
 126 145 l 1,9,-1
 178 145 l 1,10,-1
 178 173 l 1,11,-1
 30 173 l 1,4,-1
30 120 m 1,12,-1
 30 25 l 1,13,-1
 178 25 l 1,14,-1
 178 120 l 1,15,-1
 150 120 l 1,16,-1
 150 94 l 1,17,-1
 60 94 l 1,18,-1
 60 120 l 1,19,-1
 30 120 l 1,12,-1
EndSplineSet
Validated: 1
EndChar

StartChar: b
Encoding: 98 98 1
Width: 210
Flags: W
LayerCount: 2
Fore
SplineSet
6 199 m 1,0,-1
 204 199 l 1,1,-1
 204 0 l 1,2,-1
 6 0 l 1,3,-1
 6 199 l 1,0,-1
30 173 m 1,4,-1
 30 78 l 1,5,-1
 60 78 l 1,6,-1
 60 145 l 1,7,-1
 150 145 l 1,8,-1
 150 54 l 1,9,-1
 30 54 l 1,10,-1
 30 25 l 1,11,-1
 178 25 l 1,12,-1
 178 173 l 1,13,-1
 30 173 l 1,4,-1
84 120 m 1,14,-1
 84 78 l 1,15,-1
 126 78 l 1,16,-1
 126 120 l 1,17,-1
 84 120 l 1,14,-1
EndSplineSet
Validated: 1
EndChar

StartChar: c
Encoding: 99 99 2
Width: 210
Flags: W
LayerCount: 2
Fore
SplineSet
6 199 m 1,0,-1
 204 199 l 1,1,-1
 204 0 l 1,2,-1
 6 0 l 1,3,-1
 6 199 l 1,0,-1
30 173 m 1,4,-1
 30 25 l 1,5,-1
 178 25 l 1,6,-1
 178 54 l 1,7,-1
 126 54 l 1,8,-1
 126 145 l 1,9,-1
 178 145 l 1,10,-1
 178 173 l 1,11,-1
 30 173 l 1,4,-1
150 120 m 1,12,-1
 150 78 l 1,13,-1
 178 78 l 1,14,-1
 178 120 l 1,15,-1
 150 120 l 1,12,-1
EndSplineSet
Validated: 1
EndChar

StartChar: d
Encoding: 100 100 3
Width: 210
Flags: W
LayerCount: 2
Fore
SplineSet
6 199 m 1,0,-1
 204 199 l 1,1,-1
 204 0 l 1,2,-1
 6 0 l 1,3,-1
 6 199 l 1,0,-1
30 173 m 1,4,-1
 30 78 l 1,5,-1
 84 78 l 1,6,-1
 84 25 l 1,7,-1
 178 25 l 1,8,-1
 178 173 l 1,9,-1
 30 173 l 1,4,-1
30 54 m 1,10,-1
 30 25 l 1,11,-1
 60 25 l 1,12,-1
 60 54 l 1,13,-1
 30 54 l 1,10,-1
EndSplineSet
Validated: 1
EndChar

StartChar: e
Encoding: 101 101 4
Width: 210
Flags: W
LayerCount: 2
Fore
SplineSet
6 199 m 1,0,-1
 204 199 l 1,1,-1
 204 0 l 1,2,-1
 6 0 l 1,3,-1
 6 199 l 1,0,-1
30 173 m 1,4,-1
 30 145 l 1,5,-1
 84 145 l 1,6,-1
 84 78 l 1,7,-1
 178 78 l 1,8,-1
 178 173 l 1,9,-1
 30 173 l 1,4,-1
30 120 m 1,10,-1
 30 25 l 1,11,-1
 178 25 l 1,12,-1
 178 54 l 1,13,-1
 60 54 l 1,14,-1
 60 120 l 1,15,-1
 30 120 l 1,10,-1
EndSplineSet
Validated: 1
EndChar

StartChar: f
Encoding: 102 102 5
Width: 210
Flags: W
LayerCount: 2
Fore
SplineSet
6 199 m 1,0,-1
 204 199 l 1,1,-1
 204 0 l 1,2,-1
 6 0 l 1,3,-1
 6 199 l 1,0,-1
30 173 m 1,4,-1
 30 118 l 1,5,-1
 60 118 l 1,6,-1
 60 145 l 1,7,-1
 84 145 l 1,8,-1
 84 118 l 1,9,-1
 126 118 l 1,10,-1
 126 145 l 1,11,-1
 150 145 l 1,12,-1
 150 54 l 1,13,-1
 126 54 l 1,14,-1
 126 94 l 1,15,-1
 84 94 l 1,16,-1
 84 54 l 1,17,-1
 60 54 l 1,18,-1
 60 94 l 1,19,-1
 30 94 l 1,20,-1
 30 25 l 1,21,-1
 178 25 l 1,22,-1
 178 173 l 1,23,-1
 30 173 l 1,4,-1
EndSplineSet
Validated: 1
EndChar

StartChar: g
Encoding: 103 103 6
Width: 210
Flags: W
LayerCount: 2
Fore
SplineSet
6 199 m 1,0,-1
 204 199 l 1,1,-1
 204 0 l 1,2,-1
 6 0 l 1,3,-1
 6 199 l 1,0,-1
30 173 m 1,4,-1
 30 25 l 1,5,-1
 126 25 l 1,6,-1
 126 54 l 1,7,-1
 100 54 l 1,8,-1
 100 145 l 1,9,-1
 126 145 l 1,10,-1
 126 173 l 1,11,-1
 30 173 l 1,4,-1
150 173 m 1,12,-1
 150 120 l 1,13,-1
 124 120 l 1,14,-1
 124 78 l 1,15,-1
 150 78 l 1,16,-1
 150 25 l 1,17,-1
 178 25 l 1,18,-1
 178 173 l 1,19,-1
 150 173 l 1,12,-1
EndSplineSet
Validated: 1
EndChar

StartChar: h
Encoding: 104 104 7
Width: 210
Flags: W
LayerCount: 2
Fore
SplineSet
6 199 m 1,0,-1
 204 199 l 1,1,-1
 204 0 l 1,2,-1
 6 0 l 1,3,-1
 6 199 l 1,0,-1
30 173 m 1,4,-1
 30 25 l 1,5,-1
 126 25 l 1,6,-1
 126 54 l 1,7,-1
 60 54 l 1,8,-1
 60 145 l 1,9,-1
 150 145 l 1,10,-1
 150 25 l 1,11,-1
 178 25 l 1,12,-1
 178 173 l 1,13,-1
 30 173 l 1,4,-1
84 120 m 1,14,-1
 84 78 l 1,15,-1
 126 78 l 1,16,-1
 126 120 l 1,17,-1
 84 120 l 1,14,-1
EndSplineSet
Validated: 1
EndChar

StartChar: i
Encoding: 105 105 8
Width: 210
Flags: W
LayerCount: 2
Fore
SplineSet
6 199 m 1,0,-1
 204 199 l 1,1,-1
 204 0 l 1,2,-1
 6 0 l 1,3,-1
 6 199 l 1,0,-1
30 173 m 1,4,-1
 30 25 l 1,5,-1
 178 25 l 1,6,-1
 178 173 l 1,7,-1
 150 173 l 1,8,-1
 150 120 l 1,9,-1
 60 120 l 1,10,-1
 60 173 l 1,11,-1
 30 173 l 1,4,-1
84 173 m 1,12,-1
 84 145 l 1,13,-1
 126 145 l 1,14,-1
 126 173 l 1,15,-1
 84 173 l 1,12,-1
EndSplineSet
Validated: 1
EndChar

StartChar: j
Encoding: 106 106 9
Width: 210
Flags: W
LayerCount: 2
Fore
SplineSet
6 199 m 1,0,-1
 204 199 l 1,1,-1
 204 0 l 1,2,-1
 6 0 l 1,3,-1
 6 199 l 1,0,-1
30 173 m 1,4,-1
 30 25 l 1,5,-1
 126 25 l 1,6,-1
 126 78 l 1,7,-1
 178 78 l 1,8,-1
 178 173 l 1,9,-1
 30 173 l 1,4,-1
150 54 m 1,10,-1
 150 25 l 1,11,-1
 178 25 l 1,12,-1
 178 54 l 1,13,-1
 150 54 l 1,10,-1
EndSplineSet
Validated: 1
EndChar

StartChar: k
Encoding: 107 107 10
Width: 210
Flags: W
LayerCount: 2
Fore
SplineSet
6 199 m 1,0,-1
 204 199 l 1,1,-1
 204 0 l 1,2,-1
 6 0 l 1,3,-1
 6 199 l 1,0,-1
30 173 m 1,4,-1
 30 25 l 1,5,-1
 60 25 l 1,6,-1
 60 78 l 1,7,-1
 126 78 l 1,8,-1
 126 173 l 1,9,-1
 30 173 l 1,4,-1
150 173 m 1,10,-1
 150 54 l 1,11,-1
 84 54 l 1,12,-1
 84 25 l 1,13,-1
 178 25 l 1,14,-1
 178 173 l 1,15,-1
 150 173 l 1,10,-1
EndSplineSet
Validated: 1
EndChar

StartChar: l
Encoding: 108 108 11
Width: 210
Flags: W
LayerCount: 2
Fore
SplineSet
6 199 m 1,0,-1
 204 199 l 1,1,-1
 204 0 l 1,2,-1
 6 0 l 1,3,-1
 6 199 l 1,0,-1
30 173 m 1,4,-1
 30 25 l 1,5,-1
 100 25 l 1,6,-1
 100 54 l 1,7,-1
 60 54 l 1,8,-1
 60 78 l 1,9,-1
 100 78 l 1,10,-1
 100 120 l 1,11,-1
 60 120 l 1,12,-1
 60 145 l 1,13,-1
 150 145 l 1,14,-1
 150 120 l 1,15,-1
 124 120 l 1,16,-1
 124 78 l 1,17,-1
 150 78 l 1,18,-1
 150 54 l 1,19,-1
 124 54 l 1,20,-1
 124 25 l 1,21,-1
 178 25 l 1,22,-1
 178 173 l 1,23,-1
 30 173 l 1,4,-1
EndSplineSet
Validated: 1
EndChar

StartChar: m
Encoding: 109 109 12
Width: 210
Flags: W
LayerCount: 2
Fore
SplineSet
6 199 m 1,0,-1
 204 199 l 1,1,-1
 204 0 l 1,2,-1
 6 0 l 1,3,-1
 6 199 l 1,0,-1
30 173 m 1,4,-1
 30 78 l 1,5,-1
 60 78 l 1,6,-1
 60 118 l 1,7,-1
 150 118 l 1,8,-1
 150 78 l 1,9,-1
 178 78 l 1,10,-1
 178 173 l 1,11,-1
 30 173 l 1,4,-1
84 94 m 1,12,-1
 84 54 l 1,13,-1
 30 54 l 1,14,-1
 30 25 l 1,15,-1
 178 25 l 1,16,-1
 178 54 l 1,17,-1
 126 54 l 1,18,-1
 126 94 l 1,19,-1
 84 94 l 1,12,-1
EndSplineSet
Validated: 1
EndChar

StartChar: n
Encoding: 110 110 13
Width: 210
Flags: W
LayerCount: 2
Fore
SplineSet
6 199 m 1,0,-1
 204 199 l 1,1,-1
 204 0 l 1,2,-1
 6 0 l 1,3,-1
 6 199 l 1,0,-1
30 173 m 1,4,-1
 30 25 l 1,5,-1
 178 25 l 1,6,-1
 178 120 l 1,7,-1
 150 120 l 1,8,-1
 150 54 l 1,9,-1
 60 54 l 1,10,-1
 60 145 l 1,11,-1
 178 145 l 1,12,-1
 178 173 l 1,13,-1
 30 173 l 1,4,-1
84 120 m 1,14,-1
 84 78 l 1,15,-1
 126 78 l 1,16,-1
 126 120 l 1,17,-1
 84 120 l 1,14,-1
EndSplineSet
Validated: 1
EndChar

StartChar: o
Encoding: 111 111 14
Width: 210
Flags: W
LayerCount: 2
Fore
SplineSet
6 198 m 1,0,-1
 204 198 l 1,1,-1
 204 0 l 1,2,-1
 6 0 l 1,3,-1
 6 198 l 1,0,-1
31 173 m 1,4,-1
 31 144 l 1,5,-1
 84 144 l 1,6,-1
 84 54 l 1,7,-1
 31 54 l 1,8,-1
 31 25 l 1,9,-1
 179 25 l 1,10,-1
 179 173 l 1,11,-1
 31 173 l 1,4,-1
31 120 m 1,12,-1
 31 78 l 1,13,-1
 60 78 l 1,14,-1
 60 120 l 1,15,-1
 31 120 l 1,12,-1
EndSplineSet
Validated: 1
EndChar

StartChar: p
Encoding: 112 112 15
Width: 210
Flags: W
LayerCount: 2
Fore
SplineSet
6 199 m 1,0,-1
 204 199 l 1,1,-1
 204 0 l 1,2,-1
 6 0 l 1,3,-1
 6 199 l 1,0,-1
30 173 m 1,4,-1
 30 25 l 1,5,-1
 178 25 l 1,6,-1
 178 120 l 1,7,-1
 126 120 l 1,8,-1
 126 173 l 1,9,-1
 30 173 l 1,4,-1
150 173 m 1,10,-1
 150 145 l 1,11,-1
 178 145 l 1,12,-1
 178 173 l 1,13,-1
 150 173 l 1,10,-1
EndSplineSet
Validated: 1
EndChar

StartChar: q
Encoding: 113 113 16
Width: 210
Flags: W
LayerCount: 2
Fore
SplineSet
6 199 m 1,0,-1
 204 199 l 1,1,-1
 204 0 l 1,2,-1
 6 0 l 1,3,-1
 6 199 l 1,0,-1
30 173 m 1,4,-1
 30 25 l 1,5,-1
 60 25 l 1,6,-1
 60 78 l 1,7,-1
 126 78 l 1,8,-1
 126 173 l 1,9,-1
 30 173 l 1,4,-1
150 173 m 1,10,-1
 150 54 l 1,11,-1
 84 54 l 1,12,-1
 84 25 l 1,13,-1
 178 25 l 1,14,-1
 178 173 l 1,15,-1
 150 173 l 1,10,-1
EndSplineSet
Validated: 1
EndChar

StartChar: r
Encoding: 114 114 17
Width: 210
Flags: W
LayerCount: 2
Fore
SplineSet
6 198 m 1,0,-1
 204 198 l 1,1,-1
 204 0 l 1,2,-1
 6 0 l 1,3,-1
 6 198 l 1,0,-1
31 173 m 1,4,-1
 31 25 l 1,5,-1
 179 25 l 1,6,-1
 179 94 l 1,7,-1
 150 94 l 1,8,-1
 150 54 l 1,9,-1
 126 54 l 1,10,-1
 126 94 l 1,11,-1
 84 94 l 1,12,-1
 84 54 l 1,13,-1
 60 54 l 1,14,-1
 60 144 l 1,15,-1
 84 144 l 1,16,-1
 84 118 l 1,17,-1
 126 118 l 1,18,-1
 126 144 l 1,19,-1
 150 144 l 1,20,-1
 150 118 l 1,21,-1
 179 118 l 1,22,-1
 179 173 l 1,23,-1
 31 173 l 1,4,-1
EndSplineSet
Validated: 1
EndChar

StartChar: s
Encoding: 115 115 18
Width: 210
Flags: W
LayerCount: 2
Fore
SplineSet
6 199 m 1,0,-1
 204 199 l 1,1,-1
 204 0 l 1,2,-1
 6 0 l 1,3,-1
 6 199 l 1,0,-1
30 173 m 1,4,-1
 30 25 l 1,5,-1
 60 25 l 1,6,-1
 60 78 l 1,7,-1
 100 78 l 1,8,-1
 100 120 l 1,9,-1
 60 120 l 1,10,-1
 60 173 l 1,11,-1
 30 173 l 1,4,-1
84 173 m 1,12,-1
 84 145 l 1,13,-1
 124 145 l 1,14,-1
 124 54 l 1,15,-1
 84 54 l 1,16,-1
 84 25 l 1,17,-1
 178 25 l 1,18,-1
 178 173 l 1,19,-1
 84 173 l 1,12,-1
EndSplineSet
Validated: 1
EndChar

StartChar: t
Encoding: 116 116 19
Width: 210
Flags: W
LayerCount: 2
Fore
SplineSet
6 199 m 1,0,-1
 204 199 l 1,1,-1
 204 0 l 1,2,-1
 6 0 l 1,3,-1
 6 199 l 1,0,-1
30 173 m 1,4,-1
 30 25 l 1,5,-1
 178 25 l 1,6,-1
 178 173 l 1,7,-1
 84 173 l 1,8,-1
 84 145 l 1,9,-1
 150 145 l 1,10,-1
 150 54 l 1,11,-1
 60 54 l 1,12,-1
 60 173 l 1,13,-1
 30 173 l 1,4,-1
84 120 m 1,14,-1
 84 78 l 1,15,-1
 126 78 l 1,16,-1
 126 120 l 1,17,-1
 84 120 l 1,14,-1
EndSplineSet
Validated: 1
EndChar

StartChar: u
Encoding: 117 117 20
Width: 210
Flags: W
LayerCount: 2
Fore
SplineSet
6 199 m 1,0,-1
 204 199 l 1,1,-1
 204 0 l 1,2,-1
 6 0 l 1,3,-1
 6 199 l 1,0,-1
30 173 m 1,4,-1
 30 25 l 1,5,-1
 60 25 l 1,6,-1
 60 78 l 1,7,-1
 150 78 l 1,8,-1
 150 25 l 1,9,-1
 178 25 l 1,10,-1
 178 173 l 1,11,-1
 30 173 l 1,4,-1
84 54 m 1,12,-1
 84 25 l 1,13,-1
 126 25 l 1,14,-1
 126 54 l 1,15,-1
 84 54 l 1,12,-1
EndSplineSet
Validated: 1
EndChar

StartChar: v
Encoding: 118 118 21
Width: 210
Flags: W
LayerCount: 2
Fore
SplineSet
6 199 m 1,0,-1
 204 199 l 1,1,-1
 204 0 l 1,2,-1
 6 0 l 1,3,-1
 6 199 l 1,0,-1
30 173 m 1,4,-1
 30 25 l 1,5,-1
 60 25 l 1,6,-1
 60 78 l 1,7,-1
 150 78 l 1,8,-1
 150 25 l 1,9,-1
 178 25 l 1,10,-1
 178 173 l 1,11,-1
 30 173 l 1,4,-1
84 54 m 1,12,-1
 84 25 l 1,13,-1
 126 25 l 1,14,-1
 126 54 l 1,15,-1
 84 54 l 1,12,-1
EndSplineSet
Validated: 1
EndChar

StartChar: w
Encoding: 119 119 22
Width: 210
Flags: W
LayerCount: 2
Fore
SplineSet
6 199 m 1,0,-1
 204 199 l 1,1,-1
 204 0 l 1,2,-1
 6 0 l 1,3,-1
 6 199 l 1,0,-1
30 173 m 1,4,-1
 30 144 l 1,5,-1
 60 144 l 1,6,-1
 60 173 l 1,7,-1
 30 173 l 1,4,-1
84 173 m 1,8,-1
 84 120 l 1,9,-1
 30 120 l 1,10,-1
 30 25 l 1,11,-1
 178 25 l 1,12,-1
 178 173 l 1,13,-1
 84 173 l 1,8,-1
EndSplineSet
Validated: 1
EndChar

StartChar: x
Encoding: 120 120 23
Width: 210
Flags: W
LayerCount: 2
Fore
SplineSet
6 199 m 1,0,-1
 204 199 l 1,1,-1
 204 0 l 1,2,-1
 6 0 l 1,3,-1
 6 199 l 1,0,-1
30 173 m 1,4,-1
 30 25 l 1,5,-1
 60 25 l 1,6,-1
 60 145 l 1,7,-1
 126 145 l 1,8,-1
 126 173 l 1,9,-1
 30 173 l 1,4,-1
150 173 m 1,10,-1
 150 120 l 1,11,-1
 84 120 l 1,12,-1
 84 25 l 1,13,-1
 178 25 l 1,14,-1
 178 173 l 1,15,-1
 150 173 l 1,10,-1
EndSplineSet
Validated: 1
EndChar

StartChar: y
Encoding: 121 121 24
Width: 210
Flags: W
LayerCount: 2
Fore
SplineSet
6 199 m 1,0,-1
 204 199 l 1,1,-1
 204 0 l 1,2,-1
 6 0 l 1,3,-1
 6 199 l 1,0,-1
30 173 m 1,4,-1
 30 25 l 1,5,-1
 178 25 l 1,6,-1
 178 173 l 1,7,-1
 124 173 l 1,8,-1
 124 145 l 1,9,-1
 150 145 l 1,10,-1
 150 120 l 1,11,-1
 124 120 l 1,12,-1
 124 78 l 1,13,-1
 150 78 l 1,14,-1
 150 54 l 1,15,-1
 60 54 l 1,16,-1
 60 78 l 1,17,-1
 100 78 l 1,18,-1
 100 120 l 1,19,-1
 60 120 l 1,20,-1
 60 145 l 1,21,-1
 100 145 l 1,22,-1
 100 173 l 1,23,-1
 30 173 l 1,4,-1
EndSplineSet
Validated: 1
EndChar

StartChar: z
Encoding: 122 122 25
Width: 210
Flags: W
LayerCount: 2
Fore
SplineSet
6 199 m 1,0,-1
 204 199 l 1,1,-1
 204 0 l 1,2,-1
 6 0 l 1,3,-1
 6 199 l 1,0,-1
30 173 m 1,4,-1
 30 145 l 1,5,-1
 150 145 l 1,6,-1
 150 78 l 1,7,-1
 178 78 l 1,8,-1
 178 173 l 1,9,-1
 30 173 l 1,4,-1
30 120 m 1,10,-1
 30 25 l 1,11,-1
 178 25 l 1,12,-1
 178 54 l 1,13,-1
 126 54 l 1,14,-1
 126 120 l 1,15,-1
 30 120 l 1,10,-1
EndSplineSet
Validated: 1
EndChar

StartChar: A
Encoding: 65 65 26
Width: 210
Flags: W
LayerCount: 2
Fore
SplineSet
6 199 m 1,0,-1
 204 199 l 1,1,-1
 204 0 l 1,2,-1
 6 0 l 1,3,-1
 6 199 l 1,0,-1
30 173 m 1,4,-1
 30 145 l 1,5,-1
 84 145 l 1,6,-1
 84 118 l 1,7,-1
 126 118 l 1,8,-1
 126 145 l 1,9,-1
 178 145 l 1,10,-1
 178 173 l 1,11,-1
 30 173 l 1,4,-1
30 120 m 1,12,-1
 30 25 l 1,13,-1
 178 25 l 1,14,-1
 178 120 l 1,15,-1
 150 120 l 1,16,-1
 150 94 l 1,17,-1
 60 94 l 1,18,-1
 60 120 l 1,19,-1
 30 120 l 1,12,-1
EndSplineSet
EndChar

StartChar: B
Encoding: 66 66 27
Width: 210
Flags: W
LayerCount: 2
Fore
SplineSet
6 199 m 1,0,-1
 204 199 l 1,1,-1
 204 0 l 1,2,-1
 6 0 l 1,3,-1
 6 199 l 1,0,-1
30 173 m 1,4,-1
 30 78 l 1,5,-1
 60 78 l 1,6,-1
 60 145 l 1,7,-1
 150 145 l 1,8,-1
 150 54 l 1,9,-1
 30 54 l 1,10,-1
 30 25 l 1,11,-1
 178 25 l 1,12,-1
 178 173 l 1,13,-1
 30 173 l 1,4,-1
84 120 m 1,14,-1
 84 78 l 1,15,-1
 126 78 l 1,16,-1
 126 120 l 1,17,-1
 84 120 l 1,14,-1
EndSplineSet
EndChar

StartChar: C
Encoding: 67 67 28
Width: 210
Flags: W
LayerCount: 2
Fore
SplineSet
6 199 m 1,0,-1
 204 199 l 1,1,-1
 204 0 l 1,2,-1
 6 0 l 1,3,-1
 6 199 l 1,0,-1
30 173 m 1,4,-1
 30 25 l 1,5,-1
 178 25 l 1,6,-1
 178 54 l 1,7,-1
 126 54 l 1,8,-1
 126 145 l 1,9,-1
 178 145 l 1,10,-1
 178 173 l 1,11,-1
 30 173 l 1,4,-1
150 120 m 1,12,-1
 150 78 l 1,13,-1
 178 78 l 1,14,-1
 178 120 l 1,15,-1
 150 120 l 1,12,-1
EndSplineSet
EndChar

StartChar: D
Encoding: 68 68 29
Width: 210
Flags: W
LayerCount: 2
Fore
SplineSet
6 199 m 1,0,-1
 204 199 l 1,1,-1
 204 0 l 1,2,-1
 6 0 l 1,3,-1
 6 199 l 1,0,-1
30 173 m 1,4,-1
 30 78 l 1,5,-1
 84 78 l 1,6,-1
 84 25 l 1,7,-1
 178 25 l 1,8,-1
 178 173 l 1,9,-1
 30 173 l 1,4,-1
30 54 m 1,10,-1
 30 25 l 1,11,-1
 60 25 l 1,12,-1
 60 54 l 1,13,-1
 30 54 l 1,10,-1
EndSplineSet
EndChar

StartChar: E
Encoding: 69 69 30
Width: 210
Flags: W
LayerCount: 2
Fore
SplineSet
6 199 m 1,0,-1
 204 199 l 1,1,-1
 204 0 l 1,2,-1
 6 0 l 1,3,-1
 6 199 l 1,0,-1
30 173 m 1,4,-1
 30 145 l 1,5,-1
 84 145 l 1,6,-1
 84 78 l 1,7,-1
 178 78 l 1,8,-1
 178 173 l 1,9,-1
 30 173 l 1,4,-1
30 120 m 1,10,-1
 30 25 l 1,11,-1
 178 25 l 1,12,-1
 178 54 l 1,13,-1
 60 54 l 1,14,-1
 60 120 l 1,15,-1
 30 120 l 1,10,-1
EndSplineSet
EndChar

StartChar: F
Encoding: 70 70 31
Width: 210
Flags: W
LayerCount: 2
Fore
SplineSet
6 199 m 1,0,-1
 204 199 l 1,1,-1
 204 0 l 1,2,-1
 6 0 l 1,3,-1
 6 199 l 1,0,-1
30 173 m 1,4,-1
 30 118 l 1,5,-1
 60 118 l 1,6,-1
 60 145 l 1,7,-1
 84 145 l 1,8,-1
 84 118 l 1,9,-1
 126 118 l 1,10,-1
 126 145 l 1,11,-1
 150 145 l 1,12,-1
 150 54 l 1,13,-1
 126 54 l 1,14,-1
 126 94 l 1,15,-1
 84 94 l 1,16,-1
 84 54 l 1,17,-1
 60 54 l 1,18,-1
 60 94 l 1,19,-1
 30 94 l 1,20,-1
 30 25 l 1,21,-1
 178 25 l 1,22,-1
 178 173 l 1,23,-1
 30 173 l 1,4,-1
EndSplineSet
EndChar

StartChar: G
Encoding: 71 71 32
Width: 210
Flags: W
LayerCount: 2
Fore
SplineSet
6 199 m 1,0,-1
 204 199 l 1,1,-1
 204 0 l 1,2,-1
 6 0 l 1,3,-1
 6 199 l 1,0,-1
30 173 m 1,4,-1
 30 25 l 1,5,-1
 126 25 l 1,6,-1
 126 54 l 1,7,-1
 100 54 l 1,8,-1
 100 145 l 1,9,-1
 126 145 l 1,10,-1
 126 173 l 1,11,-1
 30 173 l 1,4,-1
150 173 m 1,12,-1
 150 120 l 1,13,-1
 124 120 l 1,14,-1
 124 78 l 1,15,-1
 150 78 l 1,16,-1
 150 25 l 1,17,-1
 178 25 l 1,18,-1
 178 173 l 1,19,-1
 150 173 l 1,12,-1
EndSplineSet
EndChar

StartChar: H
Encoding: 72 72 33
Width: 210
Flags: W
LayerCount: 2
Fore
SplineSet
6 199 m 1,0,-1
 204 199 l 1,1,-1
 204 0 l 1,2,-1
 6 0 l 1,3,-1
 6 199 l 1,0,-1
30 173 m 1,4,-1
 30 25 l 1,5,-1
 126 25 l 1,6,-1
 126 54 l 1,7,-1
 60 54 l 1,8,-1
 60 145 l 1,9,-1
 150 145 l 1,10,-1
 150 25 l 1,11,-1
 178 25 l 1,12,-1
 178 173 l 1,13,-1
 30 173 l 1,4,-1
84 120 m 1,14,-1
 84 78 l 1,15,-1
 126 78 l 1,16,-1
 126 120 l 1,17,-1
 84 120 l 1,14,-1
EndSplineSet
EndChar

StartChar: I
Encoding: 73 73 34
Width: 210
Flags: W
LayerCount: 2
Fore
SplineSet
6 199 m 1,0,-1
 204 199 l 1,1,-1
 204 0 l 1,2,-1
 6 0 l 1,3,-1
 6 199 l 1,0,-1
30 173 m 1,4,-1
 30 25 l 1,5,-1
 178 25 l 1,6,-1
 178 173 l 1,7,-1
 150 173 l 1,8,-1
 150 120 l 1,9,-1
 60 120 l 1,10,-1
 60 173 l 1,11,-1
 30 173 l 1,4,-1
84 173 m 1,12,-1
 84 145 l 1,13,-1
 126 145 l 1,14,-1
 126 173 l 1,15,-1
 84 173 l 1,12,-1
EndSplineSet
EndChar

StartChar: J
Encoding: 74 74 35
Width: 210
Flags: W
LayerCount: 2
Fore
SplineSet
6 199 m 1,0,-1
 204 199 l 1,1,-1
 204 0 l 1,2,-1
 6 0 l 1,3,-1
 6 199 l 1,0,-1
30 173 m 1,4,-1
 30 25 l 1,5,-1
 126 25 l 1,6,-1
 126 78 l 1,7,-1
 178 78 l 1,8,-1
 178 173 l 1,9,-1
 30 173 l 1,4,-1
150 54 m 1,10,-1
 150 25 l 1,11,-1
 178 25 l 1,12,-1
 178 54 l 1,13,-1
 150 54 l 1,10,-1
EndSplineSet
EndChar

StartChar: K
Encoding: 75 75 36
Width: 210
Flags: W
LayerCount: 2
Fore
SplineSet
6 199 m 1,0,-1
 204 199 l 1,1,-1
 204 0 l 1,2,-1
 6 0 l 1,3,-1
 6 199 l 1,0,-1
30 173 m 1,4,-1
 30 25 l 1,5,-1
 60 25 l 1,6,-1
 60 78 l 1,7,-1
 126 78 l 1,8,-1
 126 173 l 1,9,-1
 30 173 l 1,4,-1
150 173 m 1,10,-1
 150 54 l 1,11,-1
 84 54 l 1,12,-1
 84 25 l 1,13,-1
 178 25 l 1,14,-1
 178 173 l 1,15,-1
 150 173 l 1,10,-1
EndSplineSet
EndChar

StartChar: L
Encoding: 76 76 37
Width: 210
Flags: W
LayerCount: 2
Fore
SplineSet
6 199 m 1,0,-1
 204 199 l 1,1,-1
 204 0 l 1,2,-1
 6 0 l 1,3,-1
 6 199 l 1,0,-1
30 173 m 1,4,-1
 30 25 l 1,5,-1
 100 25 l 1,6,-1
 100 54 l 1,7,-1
 60 54 l 1,8,-1
 60 78 l 1,9,-1
 100 78 l 1,10,-1
 100 120 l 1,11,-1
 60 120 l 1,12,-1
 60 145 l 1,13,-1
 150 145 l 1,14,-1
 150 120 l 1,15,-1
 124 120 l 1,16,-1
 124 78 l 1,17,-1
 150 78 l 1,18,-1
 150 54 l 1,19,-1
 124 54 l 1,20,-1
 124 25 l 1,21,-1
 178 25 l 1,22,-1
 178 173 l 1,23,-1
 30 173 l 1,4,-1
EndSplineSet
EndChar

StartChar: M
Encoding: 77 77 38
Width: 210
Flags: W
LayerCount: 2
Fore
SplineSet
6 199 m 1,0,-1
 204 199 l 1,1,-1
 204 0 l 1,2,-1
 6 0 l 1,3,-1
 6 199 l 1,0,-1
30 173 m 1,4,-1
 30 78 l 1,5,-1
 60 78 l 1,6,-1
 60 118 l 1,7,-1
 150 118 l 1,8,-1
 150 78 l 1,9,-1
 178 78 l 1,10,-1
 178 173 l 1,11,-1
 30 173 l 1,4,-1
84 94 m 1,12,-1
 84 54 l 1,13,-1
 30 54 l 1,14,-1
 30 25 l 1,15,-1
 178 25 l 1,16,-1
 178 54 l 1,17,-1
 126 54 l 1,18,-1
 126 94 l 1,19,-1
 84 94 l 1,12,-1
EndSplineSet
EndChar

StartChar: N
Encoding: 78 78 39
Width: 210
Flags: W
LayerCount: 2
Fore
SplineSet
6 199 m 1,0,-1
 204 199 l 1,1,-1
 204 0 l 1,2,-1
 6 0 l 1,3,-1
 6 199 l 1,0,-1
30 173 m 1,4,-1
 30 25 l 1,5,-1
 178 25 l 1,6,-1
 178 120 l 1,7,-1
 150 120 l 1,8,-1
 150 54 l 1,9,-1
 60 54 l 1,10,-1
 60 145 l 1,11,-1
 178 145 l 1,12,-1
 178 173 l 1,13,-1
 30 173 l 1,4,-1
84 120 m 1,14,-1
 84 78 l 1,15,-1
 126 78 l 1,16,-1
 126 120 l 1,17,-1
 84 120 l 1,14,-1
EndSplineSet
EndChar

StartChar: O
Encoding: 79 79 40
Width: 210
Flags: W
LayerCount: 2
Fore
SplineSet
6 198 m 1,0,-1
 204 198 l 1,1,-1
 204 0 l 1,2,-1
 6 0 l 1,3,-1
 6 198 l 1,0,-1
31 173 m 1,4,-1
 31 144 l 1,5,-1
 84 144 l 1,6,-1
 84 54 l 1,7,-1
 31 54 l 1,8,-1
 31 25 l 1,9,-1
 179 25 l 1,10,-1
 179 173 l 1,11,-1
 31 173 l 1,4,-1
31 120 m 1,12,-1
 31 78 l 1,13,-1
 60 78 l 1,14,-1
 60 120 l 1,15,-1
 31 120 l 1,12,-1
EndSplineSet
EndChar

StartChar: P
Encoding: 80 80 41
Width: 210
Flags: W
LayerCount: 2
Fore
SplineSet
6 199 m 1,0,-1
 204 199 l 1,1,-1
 204 0 l 1,2,-1
 6 0 l 1,3,-1
 6 199 l 1,0,-1
30 173 m 1,4,-1
 30 25 l 1,5,-1
 178 25 l 1,6,-1
 178 120 l 1,7,-1
 126 120 l 1,8,-1
 126 173 l 1,9,-1
 30 173 l 1,4,-1
150 173 m 1,10,-1
 150 145 l 1,11,-1
 178 145 l 1,12,-1
 178 173 l 1,13,-1
 150 173 l 1,10,-1
EndSplineSet
EndChar

StartChar: Q
Encoding: 81 81 42
Width: 210
Flags: W
LayerCount: 2
Fore
SplineSet
6 199 m 1,0,-1
 204 199 l 1,1,-1
 204 0 l 1,2,-1
 6 0 l 1,3,-1
 6 199 l 1,0,-1
30 173 m 1,4,-1
 30 25 l 1,5,-1
 60 25 l 1,6,-1
 60 78 l 1,7,-1
 126 78 l 1,8,-1
 126 173 l 1,9,-1
 30 173 l 1,4,-1
150 173 m 1,10,-1
 150 54 l 1,11,-1
 84 54 l 1,12,-1
 84 25 l 1,13,-1
 178 25 l 1,14,-1
 178 173 l 1,15,-1
 150 173 l 1,10,-1
EndSplineSet
EndChar

StartChar: R
Encoding: 82 82 43
Width: 210
Flags: W
LayerCount: 2
Fore
SplineSet
6 198 m 1,0,-1
 204 198 l 1,1,-1
 204 0 l 1,2,-1
 6 0 l 1,3,-1
 6 198 l 1,0,-1
31 173 m 1,4,-1
 31 25 l 1,5,-1
 179 25 l 1,6,-1
 179 94 l 1,7,-1
 150 94 l 1,8,-1
 150 54 l 1,9,-1
 126 54 l 1,10,-1
 126 94 l 1,11,-1
 84 94 l 1,12,-1
 84 54 l 1,13,-1
 60 54 l 1,14,-1
 60 144 l 1,15,-1
 84 144 l 1,16,-1
 84 118 l 1,17,-1
 126 118 l 1,18,-1
 126 144 l 1,19,-1
 150 144 l 1,20,-1
 150 118 l 1,21,-1
 179 118 l 1,22,-1
 179 173 l 1,23,-1
 31 173 l 1,4,-1
EndSplineSet
EndChar

StartChar: S
Encoding: 83 83 44
Width: 210
Flags: W
LayerCount: 2
Fore
SplineSet
6 199 m 1,0,-1
 204 199 l 1,1,-1
 204 0 l 1,2,-1
 6 0 l 1,3,-1
 6 199 l 1,0,-1
30 173 m 1,4,-1
 30 25 l 1,5,-1
 60 25 l 1,6,-1
 60 78 l 1,7,-1
 100 78 l 1,8,-1
 100 120 l 1,9,-1
 60 120 l 1,10,-1
 60 173 l 1,11,-1
 30 173 l 1,4,-1
84 173 m 1,12,-1
 84 145 l 1,13,-1
 124 145 l 1,14,-1
 124 54 l 1,15,-1
 84 54 l 1,16,-1
 84 25 l 1,17,-1
 178 25 l 1,18,-1
 178 173 l 1,19,-1
 84 173 l 1,12,-1
EndSplineSet
EndChar

StartChar: T
Encoding: 84 84 45
Width: 210
Flags: W
LayerCount: 2
Fore
SplineSet
6 199 m 1,0,-1
 204 199 l 1,1,-1
 204 0 l 1,2,-1
 6 0 l 1,3,-1
 6 199 l 1,0,-1
30 173 m 1,4,-1
 30 25 l 1,5,-1
 178 25 l 1,6,-1
 178 173 l 1,7,-1
 84 173 l 1,8,-1
 84 145 l 1,9,-1
 150 145 l 1,10,-1
 150 54 l 1,11,-1
 60 54 l 1,12,-1
 60 173 l 1,13,-1
 30 173 l 1,4,-1
84 120 m 1,14,-1
 84 78 l 1,15,-1
 126 78 l 1,16,-1
 126 120 l 1,17,-1
 84 120 l 1,14,-1
EndSplineSet
EndChar

StartChar: U
Encoding: 85 85 46
Width: 210
Flags: W
LayerCount: 2
Fore
SplineSet
6 199 m 1,0,-1
 204 199 l 1,1,-1
 204 0 l 1,2,-1
 6 0 l 1,3,-1
 6 199 l 1,0,-1
30 173 m 1,4,-1
 30 25 l 1,5,-1
 60 25 l 1,6,-1
 60 78 l 1,7,-1
 150 78 l 1,8,-1
 150 25 l 1,9,-1
 178 25 l 1,10,-1
 178 173 l 1,11,-1
 30 173 l 1,4,-1
84 54 m 1,12,-1
 84 25 l 1,13,-1
 126 25 l 1,14,-1
 126 54 l 1,15,-1
 84 54 l 1,12,-1
EndSplineSet
EndChar

StartChar: V
Encoding: 86 86 47
Width: 210
Flags: W
LayerCount: 2
Fore
SplineSet
6 199 m 1,0,-1
 204 199 l 1,1,-1
 204 0 l 1,2,-1
 6 0 l 1,3,-1
 6 199 l 1,0,-1
30 173 m 1,4,-1
 30 25 l 1,5,-1
 60 25 l 1,6,-1
 60 78 l 1,7,-1
 150 78 l 1,8,-1
 150 25 l 1,9,-1
 178 25 l 1,10,-1
 178 173 l 1,11,-1
 30 173 l 1,4,-1
84 54 m 1,12,-1
 84 25 l 1,13,-1
 126 25 l 1,14,-1
 126 54 l 1,15,-1
 84 54 l 1,12,-1
EndSplineSet
EndChar

StartChar: W
Encoding: 87 87 48
Width: 210
Flags: W
LayerCount: 2
Fore
SplineSet
6 199 m 1,0,-1
 204 199 l 1,1,-1
 204 0 l 1,2,-1
 6 0 l 1,3,-1
 6 199 l 1,0,-1
30 173 m 1,4,-1
 30 144 l 1,5,-1
 60 144 l 1,6,-1
 60 173 l 1,7,-1
 30 173 l 1,4,-1
84 173 m 1,8,-1
 84 120 l 1,9,-1
 30 120 l 1,10,-1
 30 25 l 1,11,-1
 178 25 l 1,12,-1
 178 173 l 1,13,-1
 84 173 l 1,8,-1
EndSplineSet
EndChar

StartChar: X
Encoding: 88 88 49
Width: 210
Flags: W
LayerCount: 2
Fore
SplineSet
6 199 m 1,0,-1
 204 199 l 1,1,-1
 204 0 l 1,2,-1
 6 0 l 1,3,-1
 6 199 l 1,0,-1
30 173 m 1,4,-1
 30 25 l 1,5,-1
 60 25 l 1,6,-1
 60 145 l 1,7,-1
 126 145 l 1,8,-1
 126 173 l 1,9,-1
 30 173 l 1,4,-1
150 173 m 1,10,-1
 150 120 l 1,11,-1
 84 120 l 1,12,-1
 84 25 l 1,13,-1
 178 25 l 1,14,-1
 178 173 l 1,15,-1
 150 173 l 1,10,-1
EndSplineSet
EndChar

StartChar: Y
Encoding: 89 89 50
Width: 210
Flags: W
LayerCount: 2
Fore
SplineSet
6 199 m 1,0,-1
 204 199 l 1,1,-1
 204 0 l 1,2,-1
 6 0 l 1,3,-1
 6 199 l 1,0,-1
30 173 m 1,4,-1
 30 25 l 1,5,-1
 178 25 l 1,6,-1
 178 173 l 1,7,-1
 124 173 l 1,8,-1
 124 145 l 1,9,-1
 150 145 l 1,10,-1
 150 120 l 1,11,-1
 124 120 l 1,12,-1
 124 78 l 1,13,-1
 150 78 l 1,14,-1
 150 54 l 1,15,-1
 60 54 l 1,16,-1
 60 78 l 1,17,-1
 100 78 l 1,18,-1
 100 120 l 1,19,-1
 60 120 l 1,20,-1
 60 145 l 1,21,-1
 100 145 l 1,22,-1
 100 173 l 1,23,-1
 30 173 l 1,4,-1
EndSplineSet
EndChar

StartChar: Z
Encoding: 90 90 51
Width: 210
Flags: W
LayerCount: 2
Fore
SplineSet
6 199 m 1,0,-1
 204 199 l 1,1,-1
 204 0 l 1,2,-1
 6 0 l 1,3,-1
 6 199 l 1,0,-1
30 173 m 1,4,-1
 30 145 l 1,5,-1
 150 145 l 1,6,-1
 150 78 l 1,7,-1
 178 78 l 1,8,-1
 178 173 l 1,9,-1
 30 173 l 1,4,-1
30 120 m 1,10,-1
 30 25 l 1,11,-1
 178 25 l 1,12,-1
 178 54 l 1,13,-1
 126 54 l 1,14,-1
 126 120 l 1,15,-1
 30 120 l 1,10,-1
EndSplineSet
EndChar

StartChar: uni24EA
Encoding: 9450 9450 52
Width: 210
Flags: W
LayerCount: 2
Fore
SplineSet
6 199 m 1,0,-1
 204 199 l 1,1,-1
 204 0 l 1,2,-1
 6 0 l 1,3,-1
 6 199 l 1,0,-1
30 173 m 1,4,-1
 30 25 l 1,5,-1
 178 25 l 1,6,-1
 178 173 l 1,7,-1
 30 173 l 1,4,-1
EndSplineSet
Validated: 1
EndChar

StartChar: uni20E3
Encoding: 8419 8419 53
Width: 210
Flags: W
LayerCount: 2
Fore
SplineSet
178 87 m 25,0,-1
 178 111 l 25,1,-1
 204 111 l 25,2,-1
 204 87 l 25,3,-1
 178 87 l 25,0,-1
6 111 m 9,4,-1
 116 111 l 25,5,-1
 116 87 l 25,6,-1
 6 87 l 17,7,-1
 6 111 l 9,4,-1
EndSplineSet
Validated: 1
EndChar

StartChar: uni20E2
Encoding: 8418 8418 54
Width: 210
Flags: W
LayerCount: 2
Fore
SplineSet
94 173 m 25,0,-1
 94 199 l 25,1,-1
 116 199 l 25,2,-1
 116 173 l 25,3,-1
 94 173 l 25,0,-1
94 0 m 25,4,-1
 94 111 l 25,5,-1
 116 111 l 25,6,-1
 116 0 l 25,7,-1
 94 0 l 25,4,-1
EndSplineSet
Validated: 1
EndChar

StartChar: uni20DD
Encoding: 8413 8413 55
Width: 210
Flags: W
LayerCount: 2
Fore
SplineSet
93 25 m 25,0,-1
 116 25 l 25,1,-1
 116 0 l 25,2,-1
 93 0 l 25,3,-1
 93 25 l 25,0,-1
116 87 m 25,4,-1
94 87 m 9,5,-1
94 87 m 1,6,-1
 94 198 l 5,7,-1
 116 198 l 5,8,-1
 116 87 l 1,9,-1
 94 87 l 1,6,-1
EndSplineSet
Validated: 1
EndChar

StartChar: uni20DE
Encoding: 8414 8414 56
Width: 210
Flags: W
LayerCount: 2
Fore
SplineSet
30 111 m 25,0,-1
 30 88 l 25,1,-1
 6 88 l 25,2,-1
 6 111 l 25,3,-1
 30 111 l 25,0,-1
94 111 m 13,4,-1
 204 111 l 25,5,-1
 204 87 l 25,6,-1
 94 87 l 21,7,-1
 94 111 l 13,4,-1
EndSplineSet
EndChar
